<svg width="51" height="58" viewBox="0 0 51 58" fill="none" xmlns="http://www.w3.org/2000/svg">
<path d="M11.4158 50.7508H0.842411V16.8684H11.4158V50.7508ZM6.12342 12.2465C2.74239 12.2465 0 9.4598 0 6.09534C2.41999e-08 4.47927 0.645144 2.92939 1.79351 1.78666C2.94187 0.643927 4.49938 0.0019455 6.12342 0.0019455C7.74745 0.0019455 9.30496 0.643927 10.4533 1.78666C11.6017 2.92939 12.2468 4.47927 12.2468 6.09534C12.2468 9.4598 9.5033 12.2465 6.12342 12.2465ZM50.9886 50.7508H40.438V34.2571C40.438 30.3262 40.3583 25.2852 34.9407 25.2852C29.4434 25.2852 28.601 29.5559 28.601 33.9739V50.7508H18.039V16.8684H28.1798V21.4903H28.3278C29.7394 18.8282 33.1876 16.0188 38.332 16.0188C49.0329 16.0188 51 23.0309 51 32.1387V50.7508H50.9886Z" fill="#FDFDFD"/>
</svg>
