<svg width="158" height="60" viewBox="0 0 158 60" fill="none" xmlns="http://www.w3.org/2000/svg">
<g filter="url(#filter0_d)">
<path d="M24.702 1.61377C25.0312 1.76759 25.2396 2.08622 25.503 2.33893C25.9309 2.7125 26.2492 3.20693 26.6661 3.59148C27.1818 4.08591 27.511 4.71219 27.9389 5.27254C28.6851 6.40423 29.3434 7.61284 29.6835 8.93131C30.0346 9.83227 30.0895 10.8101 30.0676 11.777C30.0895 12.656 29.8481 13.524 29.453 14.3151C28.7728 15.5127 27.5439 16.3148 26.2601 16.7433C24.6581 17.1278 22.8915 17.1938 21.3444 16.5126C20.7847 16.2049 20.1485 15.9962 19.6986 15.5127C18.6562 14.6557 18.0527 13.2603 18.2502 11.9089C18.5575 9.50265 19.9948 7.43704 21.531 5.6571C21.6736 5.92079 21.5528 6.22844 21.6517 6.50312C21.7833 7.08545 21.9918 7.70074 22.4307 8.11825C22.9684 7.62383 23.539 7.1294 23.9999 6.55806C24.4168 5.94277 24.7568 5.26155 24.8995 4.53639C24.9325 3.61346 25.0203 2.64658 24.6691 1.76759L24.702 1.61377ZM4.60065 12.5901C7.16818 12.6121 9.74668 12.5681 12.3143 12.6121C12.3143 15.1721 12.3362 17.7321 12.3032 20.2922C14.1248 20.3251 15.9461 20.3032 17.7784 20.3032C17.8004 20.5009 17.8114 20.6987 17.8114 20.8965C17.7894 23.0061 17.8223 25.1046 17.7894 27.2142C15.957 27.2362 14.1356 27.2142 12.3032 27.2252C12.3362 31.0158 12.2923 34.7954 12.3252 38.586C12.391 38.9157 12.4349 39.2453 12.4239 39.5859C12.3909 39.8936 12.5774 40.1464 12.6434 40.4319C12.786 41.0912 13.1481 41.6845 13.5649 42.201C14.1795 42.8163 14.9694 43.2448 15.8143 43.4314C16.5823 43.5524 17.3504 43.6182 18.1295 43.5633C18.1733 43.6951 18.1954 43.827 18.1954 43.9698C18.1844 45.9475 18.1844 47.9253 18.1954 49.892C18.1954 50.1667 18.1405 50.4413 18.0966 50.7049C16.9884 50.7049 15.8803 50.7818 14.772 50.7049C14.1137 50.5621 13.4116 50.628 12.775 50.3424C11.0085 49.9248 9.31876 49.0458 8.05694 47.7164C6.20261 45.9256 5.20413 43.3985 4.79815 40.8934C4.68843 40.6187 4.75426 40.3001 4.71026 40.0034C4.55676 39.3991 4.62249 38.7617 4.60054 38.1466C4.58968 29.6314 4.58968 21.1052 4.60065 12.5901ZM42.0822 19.7099C42.5429 19.589 43.0367 19.6769 43.4975 19.578C44.4631 19.4572 45.4177 19.611 46.3722 19.6439C47.0416 19.6329 47.6889 19.8307 48.3473 19.9626C50.7941 20.5559 53.1093 21.8634 54.788 23.7752C55.0843 24.2696 55.5342 24.6322 55.8193 25.1376C56.5325 26.2693 57.0044 27.5328 57.4103 28.8073C57.6628 29.7413 57.7943 30.7081 57.9151 31.664C57.97 33.7846 57.9371 35.9161 57.9481 38.0367C57.9371 42.2668 57.959 46.4969 57.9371 50.727C55.3696 50.6941 52.813 50.716 50.2565 50.705C50.2345 50.6941 50.1797 50.6501 50.1577 50.6281C50.1467 44.7061 50.1577 38.7838 50.1577 32.8727C50.1687 32.1475 50.037 31.4443 49.8834 30.7521C49.6091 30.0489 49.258 29.3787 48.7752 28.8073C48.4898 28.4667 48.0949 28.247 47.7766 27.9503C47.2828 27.6207 46.7013 27.4669 46.1418 27.3131C45.8456 27.2911 45.5493 27.3131 45.275 27.2142C44.101 27.1373 42.905 27.2362 41.8078 27.6866C41.0067 28.0712 40.2605 28.5986 39.734 29.3347C38.8672 30.3675 38.5819 31.7739 38.6038 33.0924C38.6038 38.9596 38.6148 44.8378 38.6038 50.705C36.0142 50.727 33.4249 50.6941 30.8354 50.727C30.7915 45.0686 30.8354 39.3991 30.8135 33.7406C30.8244 33.0154 30.8025 32.2903 30.8574 31.5651C31 31.2025 30.9011 30.807 31.0109 30.4553C31.2084 29.1149 31.7131 27.8404 32.2727 26.6208C32.8213 25.555 33.4796 24.5332 34.3355 23.6872C35.0049 23.0059 35.6961 22.2918 36.541 21.8193C38.176 20.6767 40.1072 19.9845 42.0822 19.7099ZM20.3021 20.2922C22.8915 20.3361 25.481 20.2812 28.0705 20.3142C28.0705 30.3675 28.0595 40.4098 28.0705 50.4523C28.0705 50.5512 28.0705 50.749 27.9169 50.716H20.3241C20.2582 49.0569 20.313 47.3869 20.2911 45.7278C20.3021 37.2566 20.2911 28.7744 20.3021 20.2922ZM101.552 40.6846C102.211 40.4319 102.847 40.1023 103.516 39.8717C104.482 39.4981 105.425 39.0476 106.391 38.6741C108.388 37.7512 110.451 36.9821 112.47 36.114C112.952 35.8503 113.501 35.7295 113.973 35.4438C114.51 35.235 115.048 35.0481 115.575 34.8064C116.036 34.5317 116.562 34.4219 117.034 34.1802C117.66 33.9274 118.263 33.6419 118.899 33.4111C119.547 33.0484 120.271 32.8728 120.918 32.5211C121.094 32.4002 121.379 32.4332 121.489 32.2244C121.302 31.9608 121.401 31.6312 121.302 31.3454C121.16 30.8291 121.017 30.3236 120.896 29.8183C120.403 28.2911 119.689 26.8297 118.724 25.5552C117.55 23.8522 115.937 22.4788 114.148 21.4679C112.974 20.7538 111.658 20.3472 110.341 19.9956C109.529 19.8968 108.75 19.6111 107.927 19.6221C107.181 19.5232 106.413 19.4792 105.678 19.6111C104.372 19.6331 103.121 19.9517 101.881 20.3143C99.7198 21.0724 97.6679 22.2261 96.0111 23.8192C95.5174 24.2807 95.1114 24.8191 94.6396 25.2915C93.9044 26.2364 93.235 27.2363 92.7304 28.313C92.0172 29.9282 91.3369 31.6202 91.2601 33.4111C91.0188 34.2681 91.0955 35.1691 91.0845 36.0481C91.0626 36.6084 91.1504 37.1578 91.2601 37.6962C91.2272 38.2674 91.4466 38.7949 91.5234 39.3443C91.71 40.5089 92.2257 41.5856 92.6975 42.6623C93.9922 45.3213 96.033 47.6286 98.5896 49.1339C100.268 50.1667 102.134 50.9028 104.087 51.1775C105.678 51.4303 107.313 51.4742 108.915 51.2655C109.463 51.3093 109.99 51.0676 110.539 51.0347C112.876 50.4853 115.169 49.4964 116.935 47.8374C117.462 47.4198 117.956 46.9254 118.373 46.3979C119.075 45.6837 119.58 44.8158 120.085 43.9588C120.567 43.0468 120.962 42.0799 121.248 41.0802C121.094 41.0141 120.919 41.0362 120.765 41.0362C118.197 41.0473 115.641 41.0252 113.073 41.0362C112.832 41.0362 112.832 41.3658 112.678 41.4977C112.239 42.1349 111.68 42.6733 111.087 43.1787C110.231 43.7941 109.222 44.1238 108.223 44.4203C107.96 44.4534 107.708 44.4423 107.466 44.5413C106.852 44.5851 106.226 44.5632 105.601 44.5523C104.91 44.4204 104.219 44.2666 103.549 44.0468C102.518 43.5195 101.508 42.9152 100.729 42.058C100.532 41.8164 100.214 41.6296 100.148 41.3109C100.323 41.234 100.488 41.1131 100.685 41.0802C101.004 41.0252 101.245 40.7725 101.552 40.6846ZM98.3921 35.125C98.2386 34.7405 98.3811 34.29 98.3592 33.8835C98.5349 33.323 98.5897 32.7298 98.7981 32.1694C99.3248 30.9278 99.9721 29.7083 100.916 28.7303C101.355 28.3677 101.728 27.9283 102.232 27.6536C102.605 27.4558 102.968 27.2361 103.352 27.0603C104.065 26.8516 104.756 26.522 105.502 26.522C106.182 26.3572 106.885 26.4451 107.576 26.456C109.386 26.7088 111.208 27.4888 112.382 28.9281C112.503 29.2139 112.097 29.2358 111.932 29.3457C111.219 29.7413 110.418 29.9389 109.705 30.3456C109.386 30.4005 109.112 30.5983 108.805 30.6972C106.534 31.686 104.218 32.5539 101.969 33.5868C100.762 34.0593 99.5663 34.5647 98.3921 35.125ZM90.2177 6.8657C87.8149 6.84373 85.4118 6.8657 83.009 6.85471C82.8333 6.87669 82.625 6.79978 82.4822 6.93162C82.5042 12.0957 82.4822 17.2707 82.4933 22.4347C82.4822 22.6215 82.5262 22.8083 82.4494 22.9841C82.23 22.9511 82.1202 22.7424 81.9557 22.6215C80.8475 21.6656 79.6077 20.8525 78.2251 20.3801C77.2924 20.0175 76.316 19.8307 75.3285 19.6549C74.2093 19.6329 73.0791 19.6 71.9489 19.6659C71.8282 19.6989 71.7185 19.7318 71.5979 19.7428C69.0852 20.0944 66.737 21.2701 64.806 22.8852C63.7307 23.896 62.6554 24.9508 61.8983 26.2253C61.0096 27.4889 60.439 28.9392 59.8904 30.3675C59.638 31.2685 59.3856 32.1585 59.2758 33.0814C59.0674 34.4988 59.1551 35.9491 59.1771 37.3774C59.2319 37.751 59.3526 38.1026 59.3636 38.4762C59.5611 39.6848 59.9122 40.8714 60.3949 42.0031C60.8009 43.0908 61.4592 44.0797 62.0627 45.0686C62.4906 45.6179 62.9076 46.1893 63.4233 46.6727C64.1913 47.4308 64.9483 48.2549 65.9139 48.7823C67.055 49.6503 68.4046 50.1668 69.7213 50.6721C70.2041 50.76 70.6539 51.0347 71.1477 51.0457C71.5646 51.0786 71.9487 51.2764 72.3657 51.2543C72.5852 51.2323 72.7827 51.3861 73.013 51.3642C74.0773 51.3971 75.1526 51.3971 76.2169 51.3642C76.3925 51.3642 76.568 51.2873 76.7546 51.2763C77.4896 51.2873 78.1699 51.0016 78.8831 50.9027C79.8157 50.5621 80.8143 50.3424 81.681 49.837C82.9648 49.2437 84.1279 48.4087 85.1702 47.4637C86.4869 46.3211 87.5512 44.8928 88.3412 43.3325C88.6814 42.6403 89.0654 41.97 89.2849 41.2229C89.7019 40.1901 89.8883 39.0914 90.0311 38.0036C90.2724 37.0477 90.1957 36.0479 90.2177 35.059C90.2177 25.665 90.2177 16.2708 90.2177 6.8657ZM82.4165 36.6193C82.3507 37.7841 81.9118 38.8937 81.3961 39.9375C80.5293 41.5746 79.0699 42.8271 77.4131 43.6182C77.1606 43.7501 76.8315 43.7392 76.656 43.9808C76.3488 43.9808 76.0416 43.9919 75.7453 44.1018C74.8016 44.1238 73.8252 44.2117 72.9035 43.948C72.5085 43.7612 72.0696 43.6844 71.6746 43.4755C71.1808 43.2008 70.6212 43.014 70.2153 42.5965C69.4472 42.0581 68.8548 41.322 68.317 40.5639C67.8891 39.8277 67.4612 39.0696 67.2637 38.2346C67.0442 37.7951 67.0661 37.3006 66.9455 36.8392C66.9126 35.6636 66.8467 34.455 67.1211 33.3123C67.2419 32.9497 67.3187 32.5651 67.4502 32.2025C67.7684 31.6201 67.9659 30.972 68.3829 30.4446C68.6023 29.9831 68.9864 29.6424 69.2937 29.2469C70.1166 28.302 71.2468 27.6977 72.3878 27.2253C72.8157 27.1265 73.2327 26.9068 73.6826 26.9068C74.5933 26.6759 75.5368 26.8628 76.4367 27.0276C77.6217 27.4561 78.7957 28.0494 79.7174 28.9284C80.0576 29.2471 80.3098 29.6426 80.6501 29.9612C82.0544 31.8508 82.7017 34.279 82.4165 36.6193ZM119.806 21.5906H129.529L136.566 41.0782L143.79 21.5906H153.167L141.169 49.8824H131.565L119.806 21.5906Z" fill="white" stroke="#FDFDFD" stroke-width="0.5"/>
</g>
<defs>
<filter id="filter0_d" x="-1" y="0" width="159" height="61" filterUnits="userSpaceOnUse" color-interpolation-filters="sRGB">
<feFlood flood-opacity="0" result="BackgroundImageFix"/>
<feColorMatrix in="SourceAlpha" type="matrix" values="0 0 0 0 0 0 0 0 0 0 0 0 0 0 0 0 0 0 127 0"/>
<feOffset dy="4"/>
<feGaussianBlur stdDeviation="2"/>
<feColorMatrix type="matrix" values="0 0 0 0 0 0 0 0 0 0 0 0 0 0 0 0 0 0 0.25 0"/>
<feBlend mode="normal" in2="BackgroundImageFix" result="effect1_dropShadow"/>
<feBlend mode="normal" in="SourceGraphic" in2="effect1_dropShadow" result="shape"/>
</filter>
</defs>
</svg>
